<svg version="1.1" id="Layer_1" xmlns="http://www.w3.org/2000/svg" xmlns:xlink="http://www.w3.org/1999/xlink" x="0px" y="0px"
	 width="100%" viewBox="0 0 144 144" enable-background="new 0 0 144 144" xml:space="preserve">
<path fill="#000000" opacity="1.000000" stroke="none" 
	d="
M32.097839,87.837555 
	C29.317211,85.245056 29.570381,82.488327 30.905474,79.791489 
	C31.932775,77.716400 33.041523,75.521873 34.656067,73.930283 
	C38.097569,70.537743 38.587982,67.066238 37.633911,62.279640 
	C35.345360,50.797951 41.186867,42.380558 49.770447,35.669998 
	C64.223228,24.370956 90.386780,24.085533 105.303802,34.844608 
	C117.359390,43.539845 121.903343,59.752064 116.511192,75.256088 
	C115.255196,78.867470 113.776131,82.421768 112.126366,85.871613 
	C108.219009,94.042297 107.322174,102.165031 110.424484,110.970772 
	C114.003387,121.129272 110.217682,126.312134 99.319519,126.176666 
	C88.507713,126.042259 77.589233,125.422806 68.641640,118.001350 
	C67.353409,116.932846 66.280464,117.173103 64.992439,117.746681 
	C63.018188,118.625862 61.063034,119.598999 59.008175,120.237465 
	C48.635059,123.460518 41.333820,118.690857 40.838955,107.792603 
	C40.584736,102.194031 36.924885,97.593925 37.294495,91.846291 
	C37.436710,89.634796 33.948689,89.524422 32.097839,87.837555 
M109.652023,49.962585 
	C108.135857,46.557652 106.033798,43.649906 102.981544,41.400135 
	C89.484505,31.451670 74.813011,30.756563 59.913040,36.955067 
	C46.588074,42.498356 42.014984,52.307713 45.005032,66.108459 
	C45.719204,69.404770 44.687939,71.991341 42.479641,74.285133 
	C40.047626,76.811295 38.181702,79.675682 36.832409,82.712173 
	C38.121792,84.355080 39.587669,84.621788 41.098335,84.681610 
	C42.675808,84.744095 43.939198,85.543404 43.735981,87.037064 
	C42.799122,93.922943 46.752953,99.889885 47.164997,106.513939 
	C47.662098,114.505501 50.856369,116.454094 58.330654,113.758965 
	C67.726051,110.371094 75.720360,104.763397 83.448563,98.601151 
	C85.742859,96.771736 88.503593,92.221527 91.641319,96.234245 
	C94.587036,100.001389 89.652100,101.829552 87.523224,103.938988 
	C83.677605,107.749489 78.412910,109.904289 74.308212,114.579803 
	C82.846336,118.883461 91.342651,120.288460 100.270294,119.763222 
	C104.598015,119.508614 106.162544,117.715790 104.703941,113.290604 
	C102.119423,105.449615 100.686333,97.455055 103.829201,89.384727 
	C105.520119,85.042732 107.355408,80.755356 109.195511,76.473404 
	C112.851547,67.965736 112.918854,59.379536 109.652023,49.962585 
z"/>
<path fill="#000000" opacity="1.000000" stroke="none" 
	d="
M84.108826,47.081596 
	C85.139496,48.406033 84.894318,49.520340 84.512733,50.648258 
	C82.074692,57.854774 79.664825,65.070976 77.185501,72.263237 
	C76.703987,73.660049 76.054855,75.315384 74.121216,74.784378 
	C72.023300,74.208260 72.003014,72.519455 72.598152,70.766022 
	C75.096054,63.406494 77.565125,56.036781 80.134201,48.702129 
	C80.711205,47.054798 81.704201,45.645660 84.108826,47.081596 
z"/>
<path fill="#000000" opacity="1.000000" stroke="none" 
	d="
M67.733353,71.014801 
	C63.201649,69.406418 60.939724,65.561569 57.876682,62.626904 
	C56.804874,61.600021 56.542973,60.185787 57.597008,59.053982 
	C60.184441,56.275642 62.862358,53.575993 65.608482,50.954262 
	C66.482895,50.119469 67.749634,49.883114 68.733269,50.924156 
	C69.840759,52.096268 69.538895,53.408974 68.622772,54.514057 
	C66.948082,56.534172 65.172859,58.470932 63.518555,60.352604 
	C64.232597,63.085567 66.443413,64.226807 67.901596,65.959923 
	C69.289047,67.608971 70.425720,69.191750 67.733353,71.014801 
z"/>
<path fill="#000000" opacity="1.000000" stroke="none" 
	d="
M97.998245,57.148232 
	C100.567711,59.495171 100.612724,61.536671 98.289833,63.704941 
	C96.114494,65.735474 94.093468,67.930916 91.927986,69.972588 
	C90.942955,70.901314 89.704712,71.689232 88.473152,70.367836 
	C87.397026,69.213211 87.510742,67.646759 88.623749,66.812271 
	C94.100586,62.705952 94.562881,58.768940 88.750938,54.547756 
	C87.657730,53.753769 87.260132,52.196800 88.469414,51.058678 
	C89.628731,49.967587 91.015358,50.396584 92.057846,51.344261 
	C94.015038,53.123447 95.855156,55.031414 97.998245,57.148232 
z"/>
</svg>